<?xml version="1.0" encoding="utf-8"?>
<!-- Generator: Adobe Illustrator 20.1.0, SVG Export Plug-In . SVG Version: 6.00 Build 0)  -->
<svg version="1.1" xmlns="http://www.w3.org/2000/svg" xmlns:xlink="http://www.w3.org/1999/xlink" x="0px" y="0px"
	 viewBox="0 0 500 500" style="enable-background:new 0 0 500 500;" xml:space="preserve">
<style type="text/css">
	.st0{display:none;}
	.st1{display:inline;fill:#D6ECF8;}
	.st2{display:inline;}
	.st3{fill:#FFFFFF;}
	.st4{fill:#F05656;}
	.st5{fill:#97C8EC;}
	.st6{fill:#725E58;}
	.st7{fill:#8EBCE5;}
	.st8{clip-path:url(#SVGID_2_);fill:#FDC26B;fill-opacity:0.5;}
	.st9{clip-path:url(#SVGID_2_);fill:#FFFFFF;fill-opacity:0.3;}
	.st10{clip-path:url(#SVGID_2_);}
	.st11{fill:#E63B35;}
	.st12{fill:#A6D2F0;}
	.st13{fill:none;stroke:#725E58;stroke-linecap:round;stroke-miterlimit:10;}
	.st14{display:inline;fill:#725E58;}
	.st15{display:inline;fill:none;stroke:#725E58;stroke-linecap:round;stroke-miterlimit:10;}
	.st16{fill:#FBB465;}
	.st17{fill:#EF5D6D;}
	.st18{fill:#91D1B8;}
	.st19{fill:none;stroke:#FBB465;stroke-width:10;stroke-miterlimit:10;}
	.st20{fill:none;stroke:#91D1B8;stroke-width:10;stroke-miterlimit:10;}
	.st21{fill:none;stroke:#EF5D6D;stroke-width:10;stroke-miterlimit:10;}
</style>
<g id="Layer_1" class="st0">
	<circle class="st1" cx="250" cy="250" r="233.3"/>
</g>
<g id="Layer_2" class="st0">
	<g class="st2">
		<path class="st3" d="M195.9,304.8c-0.6,20.3,12.5,38.4,31.7,43.7c22.8,6.3,45.2,13.9,67.7,21.1c24.5,7.8,49,15.8,73.5,23.3
			c5.7,1.8,12.4,5,17.6-0.1c5.8-5.6,1.5-12.2-0.8-18c-17.3-44.7-34.8-89.3-52.4-133.9c-5.6-14.3-15.1-24.6-30.7-27.7
			c-15.9-3.2-31.4-1.3-46,5.8c-15.7,7.6-29.1,18.2-39.9,32.1C204.5,266.9,196.4,284.3,195.9,304.8z"/>
		<path class="st3" d="M255.1,198.4c-0.7,5.3,2.7,8.4,6.8,8.8c3.2,0.3,7.4-1.5,9.8-3.8c9.2-9.1,5.7-34.3-7-42.5
			c-13.7-8.9-15.1-24.6-2.9-34.6c2.4-2,4.3-4.6,6.8-6.6c4.1-3.3,4-7.2,1.3-11c-2.6-3.7-6.3-5.2-10.9-3.4c-17.6,7-27.9,29.7-22.9,48
			c2.5,9,8.2,14.9,14.8,20.6c6.5,5.6,9.2,12,5.2,20.3C255.4,195.4,255.4,197,255.1,198.4z"/>
		<path class="st3" d="M187.1,161.4c-0.1-11.8-4.3-19.8-13.2-25.2c-6-3.7-13.4-1.7-14.8,4.9c-0.6,2.9,1.8,6.6,3.2,9.7
			c1.7,3.8,5.4,7.3,5.6,11.1c0.3,5.4-2.4,10.8-2.9,16.3c-1,10.1-2,20.6,4,29.6c8.1,12.2,19.9,19.6,33.8,23.6c5.6,1.6,9-1,11-6.3
			c1.8-4.9,0.3-8.4-4-10.8c-3.8-2.1-7.8-3.9-11.6-5.9c-13.5-7.2-16.7-14.4-13.7-29.5C185.6,172.7,186.4,166.4,187.1,161.4z"/>
		<path class="st3" d="M185.3,275.4c-3.5-5-6.3-9.2-9.2-13.3c-7.8-11.1-26.8-16.4-38.6-5.2c-4.6,4.4-10.5,5.9-16.6,2.9
			c-5.3-2.6-10.4-5.8-15.6-8.7c-4.9-2.8-9.6-1.6-13,3.2c-2.2,3.2-1.3,10,1.7,12.6c18.5,15.7,36.6,17.1,56.7,4.7
			c1.7-1.1,5.4-1.2,6.9,0c4,3.1,7.1,7.5,11.1,10.5c2.4,1.7,6.6,3.1,8.9,2.1C180.6,283,182.3,279.2,185.3,275.4z"/>
		<path class="st3" d="M112.6,184.6c0-8.3-4.9-13.1-13.2-13.1c-6.9,0-13.1,6.1-13.2,13.1c-0.1,6.9,6.1,13.2,12.9,13.3
			C108,198,112.6,193.4,112.6,184.6z"/>
		<path class="st3" d="M226.3,194.1c6.3,0,10-3.7,10-9.9c0-7.2-4.2-11.6-10.8-11.5c-5.2,0.1-10.7,5.6-10.4,11.1
			C215.5,190.3,218.7,194.6,226.3,194.1z"/>
		<path class="st3" d="M150.4,316.6c0-5.4-4.4-9.8-9.9-10c-5.9-0.2-10.3,4.2-10.2,10.1c0.1,5.7,4.1,9.8,9.8,9.9
			C146.1,326.8,150.4,322.6,150.4,316.6z"/>
		<g class="st0">
			<g class="st2">
				<path class="st4" d="M333.4,375.1c5.8,9.4,20.9-5.9,25.6-10.4c3.6-3.3,8.6-7.8,9.7-12.8c0.8-3.6-1.7-11.5-5.2-13.5
					c-1.4-0.8-3.6-1.1-5,0c-5.2,3.8-8.6,10.5-12.8,15.4c-2.4,2.8-5,5.6-7.9,7.9c-2.3,1.8-5.5,3.1-7.1,5.6c-3.4,5.4,2,10.2,7.4,9.3
					c6-1,8.6-6.9,13.7-9.6c-1.7-2.9-3.4-5.8-5-8.6c-4.3,2.4-8.4,4.9-12.4,7.7c1.7,2.9,3.4,5.8,5,8.6c2.1-1.6,4.3-3.3,6.4-4.9
					c5-3.8,0.8-11.6-5-8.6c-2.8,1.4-4.9,3.1-6.6,5.8c-2.7,4.1,2.7,9.6,6.8,6.8c8.3-5.5,15.6-12.1,21.8-20c3.9-4.9-2.6-11.9-7.1-7.1
					c-3,3.3-6,6.6-9,9.8c-3.8,4.2,1,10.5,6.1,7.9c6.5-3.4,9.2-10.2,11.3-16.9c2-6.2-7.5-8.7-9.6-2.7c-1,2.8-2,5.7-3,8.5
					c-1.9,5.3,6.8,9,9.1,3.9c1.4-3.1,2.8-6.2,4.1-9.2c-3-1.3-6.1-2.6-9.1-3.9c-0.9,3.3-1.9,6.5-2.8,9.8c-1.6,5.6,6.1,8.5,9.1,3.9
					c1.6-2.5,2.8-5.1,3.6-8c-3.3-0.4-6.5-0.9-9.8-1.3c0,1.3,0,2.7,0,4c0,4.1,5.7,6.9,8.5,3.5c1.8-2.1,2.5-3.9,2.7-6.6
					c0.3-4.6-5.5-6.3-8.5-3.5c-2.5,2.2-4.3,4.8-5.6,7.9c-2.2,5.2,3.3,9.8,7.9,6.1c3.8-3.2,5.6-7.6,5.7-12.5c0.1-5.6-8.4-6.8-9.8-1.3
					c-0.5,2.1-1.1,4.2-1.6,6.3c3.2,0.9,6.4,1.8,9.6,2.7c0.6-2.7,1-5.4,1.1-8.2c0.2-5.7-8.4-6.7-9.8-1.3c-0.9,3.2-1.4,6.5-1.5,9.8
					c3.1-0.8,6.2-1.7,9.3-2.5c-0.1-0.2-0.3-0.5-0.4-0.7c0.2,1.3,0.3,2.6,0.5,3.9c0.1-0.3,0.2-0.6,0.2-0.8c1.9-6.2-7.8-8.8-9.6-2.7
					c-0.6,2.1-0.4,3.6,0.7,5.4c2.5,4.5,9.1,2.3,9.3-2.5c0.1-2.5,0.5-4.8,1.2-7.1c-3.3-0.4-6.5-0.9-9.8-1.3c-0.1,1.9-0.3,3.6-0.7,5.5
					c-1.4,6.3,8,8.9,9.6,2.7c0.5-2.1,1.1-4.2,1.6-6.3c-3.3-0.4-6.5-0.9-9.8-1.3c-0.1,2.4-0.9,3.9-2.8,5.4c2.6,2,5.2,4,7.9,6.1
					c1-2.4,2.2-4.1,4.1-5.9c-2.8-1.2-5.7-2.4-8.5-3.5c0.1-0.1,0.2-0.3,0.2-0.4c2.8,1.2,5.7,2.4,8.5,3.5c0-1.3,0-2.7,0-4
					c0-5.7-8.3-6.8-9.8-1.3c-0.6,2.1-1.4,3.8-2.6,5.6c3,1.3,6.1,2.6,9.1,3.9c0.9-3.3,1.9-6.5,2.8-9.8c1.5-5.3-6.8-9.1-9.1-3.9
					c-1.4,3.1-2.8,6.2-4.1,9.2c3,1.3,6.1,2.6,9.1,3.9c1-2.8,2-5.7,3-8.5c-3.2-0.9-6.4-1.8-9.6-2.7c-1.3,4.1-2.7,8.7-6.7,10.9
					c2,2.6,4,5.2,6.1,7.9c3-3.3,6-6.6,9-9.8c-2.4-2.4-4.7-4.7-7.1-7.1c-5.6,7.2-12.1,13.4-19.8,18.4c2.3,2.3,4.6,4.6,6.8,6.8
					c0.7-1.1,1.9-1.6,3-2.2c-1.7-2.9-3.4-5.8-5-8.6c-2.1,1.6-4.3,3.3-6.4,4.9c-5,3.8-0.4,12.3,5,8.6c4-2.8,8.2-5.3,12.4-7.7
					c5.6-3.1,0.6-11.6-5-8.6c-1.3,0.7-10.1,8-9.4,8.5c0.8,1,1.5,2,2.3,3c0-0.3-0.1-0.5-0.1-0.8c-0.4,1.6-0.9,3.2-1.3,4.9
					c1.7-2.1,4.6-3.4,6.7-5.1c2.5-2,4.7-4.3,6.8-6.7c2.2-2.5,4.2-5,6.2-7.6c1.7-2.2,3.5-5.9,5.6-7.5c-1.7,0-3.4,0-5,0
					c-2.1-1.2,0.3,3.8,0.6,4.8c0.2-1.3,0.3-2.6,0.5-3.9c-2,4.6-5.9,8.1-9.6,11.3c-1.8,1.6-3.7,3.1-5.7,4.6c-1,0.8-4.9,4.3-6.3,4.2
					c1.4,0.8,2.9,1.7,4.3,2.5c-0.1-0.2-0.2-0.4-0.4-0.6C338.7,364.6,330,369.6,333.4,375.1L333.4,375.1z"/>
			</g>
		</g>
		<g class="st0">
			<g class="st2">
				<path class="st4" d="M292.9,360.5c3.4,14.9,29.8-9.4,34.6-13.4c6.2-5.3,12.4-11.1,17.3-17.7c1.9-2.5,4.7-6.1,5-9.3
					c0.4-4-1.5-9.2-2.3-13.2c-0.7-3.3-1.9-6.6-5.7-7.1c-3.5-0.5-5.5,2.5-7.4,4.9c-5.4,6.7-10.6,13.7-16.1,20.3
					c-5.2,6.2-10.6,12.3-16.9,17.4c-4.6,3.8-15.9,8.1-13,15.9c2.7,7.2,12,4.7,16.7,1.4c5.8-4.1,9.6-10.6,16-13.8
					c-1.7-2.9-3.4-5.8-5-8.6c-7.5,4.2-14.9,8.9-22,13.8c1.7,2.9,3.4,5.8,5,8.6c3.8-3,7.7-5.9,11.5-8.9c5-3.8,0.9-11.6-5-8.6
					c-4.3,2.2-7.9,4.8-10.4,9c-2.5,4.2,2.6,9.6,6.8,6.8c14.7-9.7,27.6-21.8,38.6-35.6c3.9-4.9-2.6-11.9-7.1-7.1
					c-5.5,6-10.9,12-16.4,17.9c-3.9,4.3,1,10.4,6.1,7.9c10.8-5.3,15.5-17.8,19.4-28.4c2.3-6.1-7.3-8.5-9.6-2.7
					c-2.1,5.2-4.2,10.5-6.3,15.7c-2.1,5.2,6.7,8.9,9.1,3.9c2.7-5.7,5.5-11.4,8.2-17c-3-1.3-6.1-2.6-9.1-3.9c-2,6-4.1,12.1-6.1,18.1
					c-1.9,5.7,6.1,8.2,9.1,3.9c2.9-4.2,5.1-8.8,6.6-13.7c-3.3-0.4-6.5-0.9-9.8-1.3c-0.2,2.5-0.4,5-0.6,7.5c-0.4,4.4,5.7,6.5,8.5,3.5
					c2.6-2.7,3.7-5.6,4-9.3c0.3-4.6-5.5-6.2-8.5-3.5c-4.3,3.8-7.6,8.4-9.9,13.6c-2.4,5.3,3.3,9.6,7.9,6.1c6.2-4.8,9.3-12.3,9.8-20
					c0.4-5.8-8.2-6.5-9.8-1.3c-1.2,3.9-2.4,7.8-3.6,11.6c3.2,0.9,6.4,1.8,9.6,2.7c1.4-4.6,2.2-9.2,2.7-14c0.6-5.9-8.1-6.4-9.8-1.3
					c-1.9,5.6-3,11.2-3.6,17.1c3.1-0.8,6.2-1.7,9.3-2.5c0,0.7,0,1.4,0,2.2c2.8-5.8-5.8-10.8-8.6-5c-1.4,2.8-1.6,5.2,0,7.9
					c2.8,4.5,8.8,2.2,9.3-2.5c0.5-4.9,1.7-9.7,3.3-14.4c-3.3-0.4-6.5-0.9-9.8-1.3c-0.4,3.9-1.2,7.6-2.3,11.4
					c-1.8,6.2,7.7,8.8,9.6,2.7c1.2-3.9,2.4-7.8,3.6-11.6c-3.3-0.4-6.5-0.9-9.8-1.3c-0.4,5.3-2.8,9.8-6.9,13c2.6,2,5.2,4,7.9,6.1
					c2-4.5,4.6-8.3,8.4-11.6c-2.8-1.2-5.7-2.4-8.5-3.5c0,0.9-0.3,1.7-1,2.2c2.8,1.2,5.7,2.4,8.5,3.5c0.2-2.5,0.4-5,0.6-7.5
					c0.5-5.8-8.2-6.5-9.8-1.3c-1.3,4.1-3.2,7.7-5.6,11.3c3,1.3,6.1,2.6,9.1,3.9c2-6,4.1-12.1,6.1-18.1c1.8-5.3-6.7-9-9.1-3.9
					c-2.7,5.7-5.5,11.4-8.2,17c3,1.3,6.1,2.6,9.1,3.9c2.1-5.2,4.2-10.5,6.3-15.7c-3.2-0.9-6.4-1.8-9.6-2.7
					c-3,8.2-6.5,18.3-14.8,22.5c2,2.6,4,5.2,6.1,7.9c5.5-6,10.9-12,16.4-17.9c-2.4-2.4-4.7-4.7-7.1-7.1
					c-10.4,13.1-22.5,24.8-36.5,34c2.3,2.3,4.6,4.6,6.8,6.8c1.6-2.7,4.1-4,6.9-5.4c-1.7-2.9-3.4-5.8-5-8.6c-3.8,3-7.7,5.9-11.5,8.9
					c-4.9,3.8-0.3,12.4,5,8.6c7.1-4.9,14.4-9.6,22-13.8c5.7-3.2,0.7-11.5-5-8.6c-6.2,3.1-10.1,8.7-15.2,13c-0.9,0.8-2.8,1.5-3.5,2.4
					c-0.3,0.1-0.7,0.2-1,0.3c0.4,3.9,1.6,4.8,3.5,2.8c3.5-1,7.7-5.5,10.4-7.9c6.3-5.5,11.9-11.9,17.2-18.5c2.9-3.6,5.7-7.2,8.6-10.9
					c1.4-1.8,2.8-3.6,4.3-5.4c0.8-1,2.2-3.5,3.3-4.1c-1.7,0-3.4,0-5,0c0.3,0.2,0.5,0.3,0.8,0.5c-0.8-1-1.5-2-2.3-3
					c1.5,4.5,2,9.5,3,14.2c0.2-1.3,0.3-2.6,0.5-3.9c-4,8.8-11.6,15.6-18.8,22c-3.8,3.3-7.7,6.5-11.8,9.4c-1.8,1.3-3.7,2.6-5.6,3.8
					c-1.2,0.8-2.4,1.5-3.6,2.2c-0.5,0.3-1,0.6-1.4,0.9c-1.3,0.6-0.9,0.8,1.2,0.5c0.8,1,1.5,2,2.3,3c-0.1-0.3-0.1-0.5-0.2-0.8
					C301.1,351.6,291.4,354.2,292.9,360.5L292.9,360.5z"/>
			</g>
		</g>
		<polyline class="st5" points="268.1,341 304.5,312 334.8,267.1 382,388.3 254.5,347 		"/>
		<path class="st6" d="M195.9,304.7c0.5-20.5,8.6-37.9,20.9-53.9c10.8-13.9,24.1-24.5,39.9-32.1c14.6-7,30.1-9,46-5.8
			c15.6,3.2,25.1,13.5,30.7,27.8c17.5,44.6,35.1,89.3,52.4,134c2.2,5.7,6.5,12.3,0.8,18c-5.2,5.1-11.9,1.9-17.6,0.1
			c-24.6-7.6-49-15.6-73.5-23.3c-22.5-7.1-44.9-14.8-67.7-21.1C208.4,343.1,195.3,325,195.9,304.7z M317.2,255.3
			c0.2-14.6-6.9-22.8-18.1-25.2c-6.8-1.4-14.6-1.6-21.2,0.3c-34.5,9.6-55.6,32.7-63.9,67.1c-2.2,9.2-0.9,19,6.5,26.8
			c9.2,9.7,20.7,9.2,32.1,6.9c19.6-4,34.7-15.8,46.9-30.7C309.8,288,317.4,273.8,317.2,255.3z M374.3,380.4
			c-14.1-36.5-27.5-71-41.4-107.1c-0.3-0.8-1.5-0.9-1.9,0c-14.7,32.8-36.1,56.1-65.5,71.5c-1.3,0.7-1.1,2.5,0.3,2.9
			c35,11.2,70,22.4,107,34.3C373.8,382.4,374.7,381.4,374.3,380.4z"/>
		<path class="st6" d="M255.1,198.4c0.3-1.4,0.3-3,0.9-4.2c4.1-8.3,1.3-14.7-5.2-20.3c-6.6-5.7-12.3-11.5-14.8-20.6
			c-5.1-18.3,5.3-41,22.9-48c4.6-1.8,8.3-0.3,10.9,3.4c2.7,3.8,2.8,7.6-1.3,11c-2.4,2-4.3,4.6-6.8,6.6
			c-12.1,10.1-10.8,25.8,2.9,34.6c12.7,8.2,16.2,33.4,7,42.5c-2.3,2.3-6.6,4.1-9.8,3.8C257.8,206.8,254.4,203.7,255.1,198.4z"/>
		<path class="st6" d="M187.1,161.4c-0.8,4.9-1.5,11.3-2.7,17.5c-3,15.1,0.2,22.3,13.7,29.5c3.8,2,7.8,3.8,11.6,5.9
			c4.3,2.4,5.8,5.9,4,10.8c-2,5.3-5.4,7.9-11,6.3c-13.9-4.1-25.7-11.4-33.8-23.6c-6-9.1-5-19.5-4-29.6c0.6-5.5,3.2-10.9,2.9-16.3
			c-0.2-3.8-3.8-7.3-5.6-11.1c-1.4-3.1-3.9-6.8-3.2-9.7c1.5-6.6,8.8-8.6,14.8-4.9C182.8,141.7,187,149.7,187.1,161.4z"/>
		<path class="st6" d="M185.3,275.4c-3,3.8-4.7,7.6-7.6,8.9c-2.3,1-6.6-0.4-8.9-2.1c-4.1-3-7.1-7.4-11.1-10.5c-1.5-1.1-5.2-1-6.9,0
			c-20.1,12.4-38.2,11-56.7-4.7c-3-2.6-4-9.4-1.7-12.6c3.4-4.8,8-6,13-3.2c5.2,2.9,10.3,6,15.6,8.7c6.1,3,12,1.5,16.6-2.9
			c11.8-11.2,30.7-5.9,38.6,5.2C179,266.2,181.8,270.3,185.3,275.4z"/>
		<path class="st6" d="M112.6,184.6c0,8.9-4.6,13.4-13.5,13.3c-6.9-0.1-13-6.4-12.9-13.3c0.1-6.9,6.2-13.1,13.2-13.1
			C107.7,171.5,112.5,176.3,112.6,184.6z"/>
		<path class="st6" d="M226.3,194.1c-7.6,0.5-10.8-3.8-11.2-10.2c-0.4-5.5,5.2-11,10.4-11.1c6.7-0.1,10.9,4.3,10.8,11.5
			C236.2,190.4,232.5,194.1,226.3,194.1z"/>
		<path class="st6" d="M150.4,316.6c0,6-4.3,10.2-10.3,10c-5.7-0.1-9.7-4.2-9.8-9.9c-0.1-6,4.3-10.3,10.2-10.1
			C146,306.8,150.4,311.2,150.4,316.6z"/>
		<path class="st7" d="M324,252c0.2,19.6-10.3,35.9-21.2,49.2c-13,15.8-29,28.4-49.8,32.6c-12.1,2.5-24.1,4.6-33.9-5.6
			c-7.9-8.2-11-22-8.6-31.8c8.8-36.5,29.8-61.9,66.4-72c7-2,15.9-1.7,23.1-0.1C311.9,226.8,324.2,236.5,324,252z"/>
	</g>
	<g class="st2">
		<g class="st0">
			<g class="st2">
				<defs>
					
						<ellipse id="SVGID_1_" transform="matrix(6.488685e-02 -0.9979 0.9979 6.488685e-02 -34.8909 569.7452)" cx="286.6" cy="303.5" rx="97.5" ry="97.5"/>
				</defs>
				<use xlink:href="#SVGID_1_"  style="overflow:visible;fill:#FFEEBA;"/>
				<clipPath id="SVGID_2_">
					<use xlink:href="#SVGID_1_"  style="overflow:visible;"/>
				</clipPath>
				<path class="st8" d="M220.7,485.1c-9.9,2-20.3,2.2-30.8,0.8c-52.9-7.3-96.3-56.7-96.7-110.1c-0.3-42.5,26.3-76.4,66.2-84.4
					c9.9-2,20.3-2.2,30.8-0.8c52.9,7.3,96.3,56.7,96.7,110.1C287.2,443.2,260.6,477.2,220.7,485.1z"/>
				<path class="st8" d="M413.7,315.6c-9.9,2-20.3,2.2-30.8,0.8c-52.9-7.3-96.3-56.7-96.7-110.1c-0.3-42.5,26.3-76.4,66.2-84.4
					c9.9-2,20.3-2.2,30.8-0.8c52.9,7.3,96.3,56.7,96.7,110.1C480.3,273.7,453.7,307.7,413.7,315.6z"/>
				<path class="st9" d="M295.9,159.6L142.6,294.1c0,0,43,68.9,67.3,76.6c75.1,24,172.6-50.2,153.3-134.6
					C357.5,211.4,295.9,159.6,295.9,159.6z"/>
				<g class="st10">
					<g>
						<path class="st11" d="M299.3,399.9l-11.2-5.3c-1-0.5-2-0.3-2.9,0.2c-0.1,0-0.2,0-0.2,0.1l-10.2,7c-1.4,1-1.8,2.9-0.8,4.3
							c1,1.4,2.9,1.8,4.3,0.8l9-4.6l9.3,3.2c1.5,0.7,3.4,0.1,4.1-1.5C301.5,402.5,300.9,400.6,299.3,399.9z"/>
					</g>
					<g>
						<path class="st11" d="M294.6,371.2l-12.1-2.8c-1-0.2-2,0.1-2.7,0.8c-0.1,0-0.2,0.1-0.2,0.1l-8.4,9c-1.1,1.3-1.1,3.2,0.2,4.4
							c1.3,1.2,3.2,1.1,4.4-0.2l7.8-6.4l9.7,1c1.7,0.4,3.3-0.7,3.7-2.3C297.3,373.3,296.3,371.6,294.6,371.2z"/>
					</g>
					<g>
						<path class="st11" d="M283.1,343.5l-12.3-0.3c-1.1,0-2,0.5-2.5,1.3c-0.1,0.1-0.2,0.1-0.2,0.2l-6.5,10.5
							c-0.9,1.5-0.4,3.4,1,4.3c1.5,0.9,3.4,0.4,4.3-1l6.4-7.7l9.6-1c1.7,0,3.1-1.3,3.2-3C286.1,345,284.8,343.6,283.1,343.5z"/>
					</g>
					<g>
						<path class="st11" d="M266,319.1l-12.2,2c-1,0.2-1.8,0.9-2.2,1.8c-0.1,0.1-0.1,0.1-0.2,0.2l-4.4,11.5c-0.6,1.6,0.2,3.4,1.8,4
							c1.6,0.6,3.4-0.2,4-1.8l5-8.7l9.2-2.8c1.7-0.3,2.8-1.9,2.6-3.5C269.3,320,267.7,318.8,266,319.1z"/>
					</g>
					<g>
						<path class="st11" d="M219.2,285.6l-10.6,6.4c-0.9,0.5-1.4,1.5-1.4,2.5c0,0.1-0.1,0.2-0.1,0.2l0.3,12.4c0.1,1.7,1.5,3.1,3.2,3
							c1.7,0,3.1-1.5,3-3.2l1.6-9.9l7.2-6.1c1.5-0.9,1.9-2.8,1-4.3C222.6,285.2,220.7,284.7,219.2,285.6z"/>
					</g>
					<g>
						<path class="st11" d="M191.3,278l-8.9,8.6c-0.8,0.7-1,1.8-0.8,2.7c0,0.1,0,0.2,0,0.2l3,12c0.4,1.6,2.1,2.7,3.8,2.3
							c1.7-0.4,2.7-2.1,2.3-3.8L190,290l5.6-7.5c1.2-1.2,1.3-3.2,0.1-4.4C194.5,276.8,192.5,276.8,191.3,278z"/>
					</g>
				</g>
				<g class="st10">
					<path class="st11" d="M273.8,207.1l11.2,5.3c0.9,0.5,2,0.3,2.9-0.2c0.1,0,0.2,0,0.2-0.1l10.2-7c1.4-1,1.8-2.9,0.8-4.3
						c-1-1.4-2.9-1.8-4.3-0.8l-9,4.6l-9.3-3.2c-1.5-0.7-3.4-0.1-4.1,1.5C271.6,204.5,272.2,206.4,273.8,207.1z"/>
					<path class="st11" d="M278.5,235.8l12.1,2.8c1,0.2,2-0.1,2.7-0.8c0.1,0,0.2-0.1,0.2-0.1l8.4-9c1.1-1.3,1.1-3.2-0.2-4.4
						c-1.2-1.2-3.2-1.1-4.4,0.2l-7.8,6.4l-9.7-1c-1.7-0.4-3.3,0.7-3.7,2.3C275.8,233.7,276.8,235.4,278.5,235.8z"/>
					<path class="st11" d="M307.1,287.9l12.2-1.9c1-0.2,1.8-0.9,2.2-1.8c0.1-0.1,0.1-0.1,0.2-0.2l4.4-11.5c0.6-1.6-0.2-3.4-1.8-4
						c-1.6-0.6-3.4,0.2-4,1.8l-5,8.7l-9.2,2.8c-1.7,0.3-2.8,1.9-2.6,3.5C303.8,287,305.4,288.1,307.1,287.9z"/>
					<path class="st11" d="M328.6,307.4l11.6-4.2c1-0.4,1.6-1.2,1.9-2.1c0-0.1,0.1-0.1,0.1-0.2l2.2-12.1c0.3-1.7-0.8-3.3-2.5-3.6
						c-1.7-0.3-3.3,0.8-3.6,2.5l-3.4,9.4l-8.4,4.5c-1.6,0.6-2.4,2.4-1.9,4C325.2,307.1,327,308,328.6,307.4z"/>
					<path class="st11" d="M353.9,321.4l10.6-6.4c0.9-0.6,1.4-1.5,1.4-2.5c0-0.1,0.1-0.2,0.1-0.2l-0.3-12.4c-0.1-1.7-1.5-3.1-3.2-3
						c-1.7,0-3.1,1.5-3,3.2l-1.6,9.9l-7.2,6.1c-1.5,0.9-1.9,2.8-1,4.2C350.5,321.8,352.4,322.3,353.9,321.4z"/>
					<path class="st11" d="M381.8,329l8.9-8.6c0.8-0.7,1-1.8,0.9-2.7c0-0.1,0-0.2,0-0.2l-3-12c-0.4-1.6-2.1-2.7-3.8-2.3
						c-1.7,0.4-2.7,2.1-2.3,3.8l0.5,10.1l-5.6,7.5c-1.2,1.2-1.3,3.2-0.1,4.4C378.6,330.2,380.6,330.2,381.8,329z"/>
				</g>
			</g>
			<g class="st2">
				<path class="st6" d="M286.5,206c2.1,0,4.3,0.1,6.4,0.2c53.7,3.5,94.5,49.9,91,103.6c-3.4,51.6-46.2,91.2-97.2,91.2
					c-2.1,0-4.3-0.1-6.4-0.2c-53.7-3.5-94.5-49.9-91-103.6C192.6,245.6,235.5,206,286.5,206 M286.5,203c-25.5,0-49.8,9.6-68.5,27
					c-18.8,17.5-30,41.3-31.7,66.9c-1.7,26.8,7.1,52.6,24.8,72.8c17.7,20.2,42.2,32.2,69,34c2.2,0.1,4.4,0.2,6.6,0.2
					c25.5,0,49.8-9.6,68.5-27c18.8-17.5,30-41.3,31.7-66.9c1.7-26.8-7.1-52.6-24.8-72.8c-17.7-20.2-42.2-32.2-69-34
					C290.9,203.1,288.6,203,286.5,203L286.5,203z"/>
			</g>
		</g>
		<g>
			<g>
				
					<ellipse transform="matrix(0.7515 -0.6597 0.6597 0.7515 -140.025 239.4742)" class="st12" cx="247.9" cy="305.6" rx="11.2" ry="4.7"/>
				
					<ellipse transform="matrix(0.7515 -0.6597 0.6597 0.7515 -101.4367 260.0613)" class="st12" cx="294.5" cy="264.7" rx="11.2" ry="4.7"/>
			</g>
			
				<ellipse transform="matrix(0.7515 -0.6597 0.6597 0.7515 -131.3098 229.6504)" class="st6" cx="239.2" cy="289.1" rx="8.9" ry="8.9"/>
			<path class="st13" d="M261.3,287.4c3.2,3.7,8.8,4,12.5,0.8c3.7-3.2,4-8.8,0.8-12.5"/>
			
				<ellipse transform="matrix(0.7515 -0.6597 0.6597 0.7515 -98.2343 247.2965)" class="st6" cx="279.1" cy="254" rx="8.9" ry="8.9"/>
		</g>
	</g>
</g>
<g id="Layer_4">
	<g>
		<g>
			<path class="st12" d="M206.2,388.3l159.4-162.7c2.1-2.1,5.7-1.4,6.8,1.4l100.5,257.8c1.3,3.3-1.9,6.6-5.2,5.4l-259.9-95.1
				C204.9,394,204.1,390.5,206.2,388.3z"/>
			
				<ellipse transform="matrix(0.6914 -0.7225 0.7225 0.6914 -132.38 299.0077)" class="st7" cx="283.8" cy="304.5" rx="118.3" ry="80.4"/>
			<g class="st0">
				<g class="st2">
					
						<ellipse transform="matrix(0.667 -0.7451 0.7451 0.667 -175.0246 310.5333)" class="st12" cx="259.9" cy="351.1" rx="18.2" ry="7.6"/>
					
						<ellipse transform="matrix(0.667 -0.7451 0.7451 0.667 -96.6014 335.6397)" class="st12" cx="327.2" cy="275.9" rx="18.2" ry="7.6"/>
				</g>
				
					<ellipse transform="matrix(0.667 -0.7451 0.7451 0.667 -162.1979 289.3969)" class="st14" cx="242.6" cy="326.1" rx="14.4" ry="14.4"/>
				<path class="st15" d="M278,319.1c5.9,5.3,15,4.8,20.4-1.1c5.3-5.9,4.8-15-1.1-20.4"/>
				
					<ellipse transform="matrix(0.667 -0.7451 0.7451 0.667 -94.9784 310.9166)" class="st14" cx="300.3" cy="261.7" rx="14.4" ry="14.4"/>
			</g>
		</g>
		<g>
			
				<ellipse transform="matrix(0.9998 -1.972795e-02 1.972795e-02 0.9998 -2.5852 4.7549)" class="st16" cx="239.7" cy="133.4" rx="17.3" ry="17.3"/>
			
				<ellipse transform="matrix(0.9998 -1.972795e-02 1.972795e-02 0.9998 -2.5444 0.7787)" class="st17" cx="38.2" cy="129.3" rx="24.8" ry="24.8"/>
			
				<ellipse transform="matrix(0.9998 -1.972795e-02 1.972795e-02 0.9998 -6.7797 2.0727)" class="st18" cx="101.7" cy="344.7" rx="17.6" ry="17.6"/>
			<path class="st19" d="M163.2,281.5c-0.3,0.3-0.5,0.5-0.9,0.7c-2.3,1.5-5.3,0.8-6.8-1.4c-10.2-15.6-20.3-23.5-29.8-23.5
				c-5.9,0-10,3-15.2,6.9c-5,3.7-10.7,7.9-18.9,9.9c-16.2,3.9-35-2.8-55.8-20c-2.1-1.7-2.4-4.8-0.7-6.9c1.7-2.1,4.8-2.4,6.9-0.7
				c18.4,15.1,34.3,21.2,47.4,18c6.3-1.5,10.7-4.8,15.4-8.2c5.9-4.3,11.9-8.8,21-8.8c13.1,0,25.9,9.4,38,27.9
				C165,277.4,164.7,279.9,163.2,281.5z"/>
			<path class="st20" d="M198.8,194.1c-1.1,1.2-2.8,1.8-4.6,1.4c-29.2-6.3-46.2-16.9-51.9-32.5c-4.9-13.3,0.1-26.4,4.9-39
				c4.9-12.9,9.5-25.1,4.4-37.5c-3.3-8-10-14.7-20.1-20.1c-2.4-1.3-3.3-4.2-2-6.6c1.3-2.4,4.2-3.3,6.6-2c12.1,6.4,20.4,14.8,24.6,25
				c6.6,16,0.8,31.2-4.3,44.7c-4.4,11.5-8.5,22.3-4.8,32.2c4.4,12,19.5,20.9,44.8,26.3c2.6,0.6,4.3,3.2,3.7,5.8
				C199.9,192.7,199.4,193.5,198.8,194.1z"/>
			<path class="st21" d="M310,157.5c-1.3,1.4-3.3,1.9-5.2,1.2c-2.5-0.9-3.8-3.7-2.9-6.3c5.6-15.2,6.3-28.5,2-39.7
				c-4.5-11.6-13.2-18-21.6-24.2c-8.6-6.3-16.7-12.3-18.8-22.9c-3.1-15.9,9.2-34,37.6-55.1c2.2-1.6,5.2-1.2,6.8,1
				c1.6,2.2,1.2,5.2-1,6.8c-24.4,18.2-36.1,33.9-33.8,45.4c1.4,6.9,7.4,11.3,15,16.9c9.1,6.7,19.4,14.2,24.9,28.5
				c5.2,13.5,4.6,29.2-1.9,46.6C310.8,156.5,310.5,157,310,157.5z"/>
		</g>
	</g>
</g>
</svg>
