<?xml version="1.0" standalone="no"?>
<!DOCTYPE svg PUBLIC "-//W3C//DTD SVG 20010904//EN"
 "http://www.w3.org/TR/2001/REC-SVG-20010904/DTD/svg10.dtd">
<svg version="1.0" xmlns="http://www.w3.org/2000/svg"
 width="700.000000pt" height="700.000000pt" viewBox="0 0 700.000000 700.000000"
 preserveAspectRatio="xMidYMid meet">
<metadata>
Created by potrace 1.11, written by Peter Selinger 2001-2013
</metadata>
<g transform="translate(0.000000,700.000000) scale(0.100000,-0.100000)"
fill="#000000" stroke="none">
<path d="M4211 6929 c-49 -19 -253 -190 -361 -304 -273 -287 -310 -575 -101
-784 32 -32 105 -93 162 -137 237 -179 310 -297 310 -501 0 -92 -18 -191 -51
-283 -20 -54 -20 -91 -1 -134 33 -75 129 -104 198 -59 45 30 91 152 121 318 9
55 8 260 -1 315 -18 96 -81 242 -137 315 -38 51 -172 177 -240 227 -161 119
-220 183 -220 238 0 120 134 296 369 485 133 106 151 140 122 226 -20 60 -108
100 -170 78z"/>
<path d="M1810 6252 c-43 -24 -82 -93 -74 -131 14 -64 28 -82 108 -134 133
-88 211 -183 231 -283 7 -33 7 -128 1 -159 -13 -65 -61 -214 -96 -300 -59
-143 -84 -258 -82 -379 3 -215 131 -398 367 -522 128 -68 419 -158 484 -150
136 16 165 199 41 260 -14 7 -52 18 -85 25 -80 17 -245 76 -320 115 -73 38
-165 126 -189 181 -21 49 -28 130 -15 181 5 22 12 49 14 61 3 12 34 102 69
200 78 218 96 304 92 438 -5 114 -32 209 -88 302 -49 82 -171 200 -265 256
-95 57 -143 67 -193 39z"/>
<path d="M473 5529 c-283 -53 -382 -410 -166 -598 170 -148 435 -97 534 104
126 256 -90 546 -368 494z"/>
<path d="M3306 5368 c-154 -33 -236 -207 -163 -347 99 -191 381 -162 443 45
51 171 -106 340 -280 302z"/>
<path d="M4448 4165 c-2 -1 -38 -5 -81 -9 -187 -16 -392 -79 -603 -186 -312
-160 -623 -434 -837 -741 -43 -62 -157 -247 -157 -255 0 -3 -18 -41 -39 -87
-96 -201 -153 -433 -157 -642 -4 -246 41 -416 156 -585 48 -70 164 -186 210
-209 19 -10 62 -32 95 -49 64 -32 177 -69 238 -76 36 -5 112 -28 152 -45 11
-5 76 -30 145 -55 69 -25 186 -67 260 -94 189 -70 533 -195 885 -323 165 -60
323 -118 350 -129 28 -10 118 -44 200 -74 390 -141 761 -277 775 -283 8 -3 20
-7 25 -8 14 -4 256 -93 310 -116 11 -4 59 -22 107 -39 82 -29 89 -30 112 -15
13 9 26 24 29 34 2 9 -45 143 -105 297 -60 153 -136 349 -169 434 -33 85 -64
164 -69 175 -5 11 -79 202 -166 425 -86 223 -185 477 -219 565 -35 88 -80 203
-100 255 -20 52 -56 145 -80 205 -238 608 -348 898 -360 955 -76 361 -335 605
-700 660 -67 10 -202 19 -207 15z"/>
<path d="M503 3626 c-67 -23 -109 -98 -91 -165 6 -20 15 -42 22 -50 20 -26
205 -160 272 -197 67 -37 224 -107 224 -99 0 3 12 0 28 -6 49 -19 85 -24 202
-24 160 0 253 34 413 149 138 99 173 109 264 74 45 -17 75 -39 138 -102 44
-45 98 -107 119 -139 60 -92 120 -116 201 -83 61 26 92 110 66 178 -12 32
-118 171 -173 228 -137 142 -278 211 -431 212 -97 1 -181 -32 -323 -128 -137
-92 -197 -116 -284 -116 -62 1 -194 33 -214 53 -6 5 -16 9 -22 9 -17 0 -131
71 -219 135 -38 29 -76 55 -84 60 -28 16 -77 21 -108 11z"/>
<path d="M1355 2412 c-77 -27 -145 -97 -165 -168 -35 -124 32 -259 149 -299
120 -41 245 9 304 120 28 52 29 163 3 215 -44 84 -116 131 -211 136 -33 2 -69
0 -80 -4z"/>
</g>
</svg>
